<!-- public/icons.svg -->
<svg xmlns="http://www.w3.org/2000/svg" style="display:none">
    <!-- User Icon -->
    <symbol id="icon-user" viewBox="0 0 24 24">
        <path d="M12 12c2.7 0 5-2.3 5-5s-2.3-5-5-5-5 2.3-5 5 2.3 5 5 5zm0 2c-3.3 0-10 1.7-10 5v3h20v-3c0-3.3-6.7-5-10-5z"/>
    </symbol>
    <!-- Phone Icon -->
    <symbol id="icon-phone" viewBox="0 0 24 24">
        <path d="M6.6 10.8c1.4 2.8 3.7 5.1 6.5 6.5l2.2-2.2c.3-.3.8-.4 1.2-.2 1.3.5 2.8.8 4.3.8.7 0 1.2.5 1.2 1.2v3.5c0 .7-.6 1.2-1.2 1.2C10.3 21 3 13.7 3 4.7 3 4 3.5 3.5 4.2 3.5h3.5c.7 0 1.2.6 1.2 1.2 0 1.6.3 3 .8 4.3.2.5.1 1-.2 1.3l-2.2 2.2z"/>
    </symbol>
    <!-- Trash Icon -->
    <symbol id="icon-trash" viewBox="0 0 24 24">
        <path d="M3 6h18v2H3V6zm2 3h14l-1.1 12.1c-.1 1.1-1 1.9-2.1 1.9H8.1c-1.1 0-2-.8-2.1-1.9L5 9zm3 2v8h2v-8H8zm4 0v8h2v-8h-2zm4 0v8h2v-8h-2z"/>
        <path d="M9 4V3h6v1h5v2H4V4h5z"/>
    </symbol>
</svg>